<mxfile host="Electron" modified="2023-04-24T20:37:28.137Z" agent="Mozilla/5.0 (Macintosh; Intel Mac OS X 10_15_7) AppleWebKit/537.36 (KHTML, like Gecko) draw.io/21.2.1 Chrome/112.0.5615.87 Electron/24.1.2 Safari/537.36" etag="1TGVl9hroqoK1gI_arTZ" version="21.2.1" type="device">
  <diagram name="Page-1" id="2c0d36ab-eaac-3732-788b-9136903baeff">
    <mxGraphModel dx="2049" dy="1220" grid="1" gridSize="10" guides="1" tooltips="1" connect="1" arrows="1" fold="1" page="1" pageScale="1.5" pageWidth="1169" pageHeight="827" background="none" math="0" shadow="0">
      <root>
        <mxCell id="0" />
        <mxCell id="1" parent="0" />
        <mxCell id="122" value="" style="fillColor=#10739E;strokeColor=none;opacity=30;rounded=1;" parent="1" vertex="1">
          <mxGeometry x="30" y="325.5" width="1390" height="100" as="geometry" />
        </mxCell>
        <mxCell id="OuXDPqR9dt6i9xtNSY38-125" style="edgeStyle=orthogonalEdgeStyle;rounded=0;orthogonalLoop=1;jettySize=auto;html=1;strokeWidth=2;" edge="1" parent="1" source="2" target="10">
          <mxGeometry relative="1" as="geometry" />
        </mxCell>
        <mxCell id="OuXDPqR9dt6i9xtNSY38-126" style="edgeStyle=orthogonalEdgeStyle;rounded=0;orthogonalLoop=1;jettySize=auto;html=1;entryX=0.5;entryY=0;entryDx=0;entryDy=0;strokeWidth=2;" edge="1" parent="1" source="2" target="OuXDPqR9dt6i9xtNSY38-123">
          <mxGeometry relative="1" as="geometry">
            <Array as="points">
              <mxPoint x="895" y="300" />
              <mxPoint x="1645" y="300" />
            </Array>
          </mxGeometry>
        </mxCell>
        <mxCell id="4" value="Filter by visited" style="rounded=1;fillColor=#23445D;gradientColor=none;strokeColor=none;fontColor=#FFFFFF;fontStyle=1;fontFamily=Tahoma;fontSize=14" parent="1" vertex="1">
          <mxGeometry x="1179.9999999999998" y="335.5" width="190" height="80" as="geometry" />
        </mxCell>
        <mxCell id="9" value="" style="edgeStyle=elbowEdgeStyle;elbow=vertical;strokeWidth=2;rounded=0" parent="1" source="2" target="4" edge="1">
          <mxGeometry x="190" y="215.5" width="100" height="100" as="geometry">
            <mxPoint x="190" y="315.5" as="sourcePoint" />
            <mxPoint x="290" y="215.5" as="targetPoint" />
          </mxGeometry>
        </mxCell>
        <mxCell id="10" value="Add a city" style="rounded=1;fillColor=#23445D;gradientColor=none;strokeColor=none;fontColor=#FFFFFF;fontStyle=1;fontFamily=Tahoma;fontSize=14" parent="1" vertex="1">
          <mxGeometry x="800" y="335.5" width="190" height="80" as="geometry" />
        </mxCell>
        <mxCell id="12" value="Add a destination" style="rounded=1;fillColor=#23445D;gradientColor=none;strokeColor=none;fontColor=#FFFFFF;fontStyle=1;fontFamily=Tahoma;fontSize=14" parent="1" vertex="1">
          <mxGeometry x="414.9999999999999" y="335.5" width="190" height="80" as="geometry" />
        </mxCell>
        <mxCell id="OuXDPqR9dt6i9xtNSY38-129" value="" style="edgeStyle=orthogonalEdgeStyle;rounded=0;orthogonalLoop=1;jettySize=auto;html=1;" edge="1" parent="1" source="13" target="OuXDPqR9dt6i9xtNSY38-128">
          <mxGeometry relative="1" as="geometry" />
        </mxCell>
        <mxCell id="13" value="Bucketlist" style="rounded=1;fillColor=#23445D;gradientColor=none;strokeColor=none;fontColor=#FFFFFF;fontStyle=1;fontFamily=Tahoma;fontSize=14" parent="1" vertex="1">
          <mxGeometry x="50" y="335.5" width="190" height="80" as="geometry" />
        </mxCell>
        <mxCell id="59" value="" style="edgeStyle=elbowEdgeStyle;elbow=vertical;strokeWidth=2;rounded=0" parent="1" source="2" target="12" edge="1">
          <mxGeometry x="200" y="225.5" width="100" height="100" as="geometry">
            <mxPoint x="714.9999999999999" y="275.5" as="sourcePoint" />
            <mxPoint x="1319.9999999999998" y="345.5" as="targetPoint" />
          </mxGeometry>
        </mxCell>
        <mxCell id="61" value="" style="edgeStyle=elbowEdgeStyle;elbow=vertical;strokeWidth=2;rounded=0" parent="1" source="2" target="13" edge="1">
          <mxGeometry x="-170" y="135.5" width="100" height="100" as="geometry">
            <mxPoint x="-170" y="235.5" as="sourcePoint" />
            <mxPoint x="-70" y="135.5" as="targetPoint" />
          </mxGeometry>
        </mxCell>
        <mxCell id="OuXDPqR9dt6i9xtNSY38-123" value="Contact Us" style="rounded=1;fillColor=#23445D;gradientColor=none;strokeColor=none;fontColor=#FFFFFF;fontStyle=1;fontFamily=Tahoma;fontSize=14" vertex="1" parent="1">
          <mxGeometry x="1549.9999999999998" y="335.5" width="190" height="80" as="geometry" />
        </mxCell>
        <mxCell id="OuXDPqR9dt6i9xtNSY38-127" value="" style="group;rounded=1;" vertex="1" connectable="0" parent="1">
          <mxGeometry x="790" y="175.50000000000003" width="210" height="99.99999999999997" as="geometry" />
        </mxCell>
        <mxCell id="123" value="" style="fillColor=#AE4132;strokeColor=none;opacity=30;" parent="OuXDPqR9dt6i9xtNSY38-127" vertex="1">
          <mxGeometry width="210" height="99.99999999999994" as="geometry" />
        </mxCell>
        <mxCell id="2" value="Splashpage" style="rounded=1;fillColor=#23445D;gradientColor=none;strokeColor=none;fontColor=#FFFFFF;fontStyle=1;fontFamily=Tahoma;fontSize=14" parent="OuXDPqR9dt6i9xtNSY38-127" vertex="1">
          <mxGeometry x="10" y="9.999999999999972" width="190" height="80" as="geometry" />
        </mxCell>
        <mxCell id="OuXDPqR9dt6i9xtNSY38-135" value="" style="edgeStyle=orthogonalEdgeStyle;rounded=0;orthogonalLoop=1;jettySize=auto;html=1;" edge="1" parent="1" source="OuXDPqR9dt6i9xtNSY38-128" target="OuXDPqR9dt6i9xtNSY38-134">
          <mxGeometry relative="1" as="geometry" />
        </mxCell>
        <mxCell id="OuXDPqR9dt6i9xtNSY38-128" value="View single country" style="whiteSpace=wrap;html=1;fontSize=14;fontFamily=Tahoma;fillColor=#23445D;strokeColor=none;fontColor=#FFFFFF;rounded=1;gradientColor=none;fontStyle=1;" vertex="1" parent="1">
          <mxGeometry x="53.5" y="510" width="183" height="70" as="geometry" />
        </mxCell>
        <mxCell id="OuXDPqR9dt6i9xtNSY38-134" value="View country&#39;s cities" style="whiteSpace=wrap;html=1;fontSize=14;fontFamily=Tahoma;fillColor=#23445D;strokeColor=none;fontColor=#FFFFFF;rounded=1;gradientColor=none;fontStyle=1;" vertex="1" parent="1">
          <mxGeometry x="53.5" y="660" width="183" height="70" as="geometry" />
        </mxCell>
        <mxCell id="OuXDPqR9dt6i9xtNSY38-137" value="&lt;b style=&quot;font-size: 40px;&quot;&gt;User Sitemaps&lt;/b&gt;" style="text;strokeColor=none;align=center;fillColor=none;html=1;verticalAlign=middle;whiteSpace=wrap;rounded=0;fontSize=40;" vertex="1" parent="1">
          <mxGeometry x="40" y="40" width="300" height="30" as="geometry" />
        </mxCell>
      </root>
    </mxGraphModel>
  </diagram>
</mxfile>
